<svg xmlns:svg="http://www.w3.org/2000/svg" xmlns="http://www.w3.org/2000/svg" xmlns:xlink="http://www.w3.org/1999/xlink" version="1.0" width="199" height="199" style=""><rect id="backgroundrect" width="100%" height="100%" x="0" y="0" fill="none" stroke="none" class="" style=""/>
  <defs id="defs2426">
    <linearGradient x1="112.49854278564453" y1="6.137209892272949" x2="112.49852752685547" y2="129.3468017578125" id="path1082_2_" gradientUnits="userSpaceOnUse" gradientTransform="translate(287,-83)">
      <stop id="stop193" style="stop-color:#ffffff;stop-opacity:0" offset="0"/>
      <stop id="stop195" style="stop-color:#ffffff;stop-opacity:0.27450982" offset="1"/>
      <midPointStop offset="0" style="stop-color:#FFFFFF" id="midPointStop197"/>
      <midPointStop offset="0.5" style="stop-color:#FFFFFF" id="midPointStop199"/>
      <midPointStop offset="1" style="stop-color:#000000" id="midPointStop201"/>
    </linearGradient>
    <linearGradient x1="541.3350219726562" y1="104.50665283203125" x2="606.9124755859375" y2="303.1402893066406" id="linearGradient2544" xlink:href="#path1082_2_" gradientUnits="userSpaceOnUse" gradientTransform="matrix(-0.3937741,0,0,0.393752,357.51969,122.00151)"/>
    <linearGradient id="linearGradient3388">
      <stop id="stop3390" style="stop-color:#000000;stop-opacity:0" offset="0"/>
      <stop id="stop3392" style="stop-color:#000000;stop-opacity:0.37113401" offset="1"/>
    </linearGradient>
    <linearGradient x1="490.7230529785156" y1="237.72447204589844" x2="490.7230529785156" y2="183.9644012451172" id="linearGradient4416" xlink:href="#linearGradient3388" gradientUnits="userSpaceOnUse" gradientTransform="matrix(0.749107,0,0,0.749107,-35.459862,91.44108)"/>
  </defs>
  
<g class="currentLayer" style=""><title>Layer 1</title>
    
      
      
      
      
      
    
  <path d="m99.56250193334782,16.624992693744375 c-7.396870050635125,18.13515812414386 -11.858304081175783,29.997682205348532 -20.093750137551364,47.59375032580206 c5.049360034565293,5.352320036639199 11.247211076992558,11.585364079307377 21.31250014589429,18.625000127497064 C89.96007886761464,78.39089711656163 82.57871481708565,73.92034508595854 77.06250177932453,69.28124305420167 C66.52270170717455,91.27415620475372 50.00986559413626,122.60208341920841 16.500001364745152,182.81249383137757 C42.83762954503886,167.60732372729086 63.25409068479932,158.23317366312034 82.28125181504939,154.65624363863452 C81.46421780945639,151.14219361457918 80.99970180627656,147.3410635885586 81.03125180649252,143.37499356140896 l0.031250000213921554,-0.8437500057758763 c0.4179170028608448,-16.873820115509396 9.195665062948741,-29.849790204336138 19.593750134128623,-28.968750198305 c10.398090071179917,0.8810400060311465 18.480410126507277,15.2824201046155 18.062500123646483,32.15625022012497 c-0.0786000005380552,3.1751200217352205 -0.43674000298969634,6.229550042644259 -1.0625000072733224,9.062500062037163 c18.820580128835903,3.6816400252025936 39.01873026710193,13.031790089208858 65.0000004449562,28.03125019188736 c-5.123000035069394,-9.431800064565198 -9.695720066371857,-17.933880122766016 -14.062500096264563,-26.0312501781964 c-6.878390047085881,-5.331210036494691 -14.052890096198777,-12.26980008399267 -28.687500196379705,-19.78125013541215 c10.058990068858614,2.6137500178923734 17.261100118160513,5.629320038535397 22.875000156590353,9.00000006160932 C118.38297206218297,63.33815401351838 114.78766203757135,52.35410193832726 99.56250193334782,16.624992693744375 z" id="path2518" style="fill:#ffffff;fill-opacity:1;fill-rule:evenodd;stroke:none" stroke-width="0" class=""/><g id="text2634" style="font-size:8.44138241px;font-style:normal;font-weight:normal;fill:#ffffff;fill-opacity:1;stroke:none;font-family:DejaVu Sans Mono" stroke-width="0" class="">
        <path d="m579.4869771725815,124.3671049288742 l0,-4.661317952064 l-1.7412420451919999,0 l0,-0.6236764072920001 l4.1890672062,0 l0,0.6236764072920001 l-1.748449042536,0 l0,4.661317952064 l-0.6993761184720002,0 " id="path7858" style="fill:#ffffff" stroke-width="0"/>
        <path d="m582.6630239341496,124.3671049288742 l0,-5.284994359355999 l1.0526676763799998,0 l1.250956313256,3.7420409510400003 c0.115355689284,0.34848106210800006 0.19946939493600005,0.6092536662480001 0.2523498633120001,0.7822915733520002 c0.06008746572000003,-0.19227114394800005 0.15381341661600004,-0.47466474012000015 0.2811953454000001,-0.8471895348720002 l1.265370307944,-3.67714298952 l0.9409154857679999,0 l0,5.284994359355999 l-0.6741428814120001,0 l0,-4.423390829795999 l-1.5357464109720003,4.423390829795999 l-0.630883404636,0 l-1.528539413628,-4.499090540976 l0,4.499090540976 l-0.6741428814120001,0 " id="path7860" style="fill:#ffffff" stroke-width="0"/>
      </g><g id="text2638" style="font-size:8.25130367px;font-style:normal;font-weight:normal;fill:#ffffff;fill-opacity:1;stroke:none;font-family:DejaVu Sans Mono" stroke-width="0" class="">
        <path d="m181.13252217909766,167.97941845227024 l0,-4.55637042642 l-1.702023384888,0 l0,-0.609621013200004 l4.0947290103839995,0 l0,0.609621013200004 l-1.7090729478239999,0 l0,4.55637042642 l-0.6836326776720028,0 " id="path7853" style="fill:#ffffff" stroke-width="0"/>
        <path d="m184.23704998765365,167.97941845227024 l0,-5.165991439619999 l1.028973797976,0 l1.2227843005799999,3.65776981098 c0.11275802155200018,0.3406443271320015 0.1949825143080002,0.5955393800400003 0.24666473191200047,0.7646851587240016 c0.05868804876000019,-0.18794169772800054 0.15034985964000042,-0.4639766930880013 0.2748629836560012,-0.8281137324360006 l1.2368834264520001,-3.5943412372680017 l0.9197230651799999,0 l0,5.165991439619999 l-0.6589592073960029,0 l0,-4.323787327668 l-1.501172065704,4.323787327668 l-0.6166705761360022,0 l-1.4941225027679998,-4.397790245783999 l0,4.397790245783999 l-0.6589679537520001,0 " id="path7855" style="fill:#ffffff" stroke-width="0"/>
      </g></g></svg>