<?xml version="1.0" encoding="UTF-8" standalone="no"?>
<!-- Generator: Adobe Illustrator 22.0.1, SVG Export Plug-In . SVG Version: 6.00 Build 0)  -->

<svg
   xmlns:dc="http://purl.org/dc/elements/1.1/"
   xmlns:cc="http://creativecommons.org/ns#"
   xmlns:rdf="http://www.w3.org/1999/02/22-rdf-syntax-ns#"
   xmlns:svg="http://www.w3.org/2000/svg"
   xmlns="http://www.w3.org/2000/svg"
   xmlns:sodipodi="http://sodipodi.sourceforge.net/DTD/sodipodi-0.dtd"
   xmlns:inkscape="http://www.inkscape.org/namespaces/inkscape"
   version="1.1"
   id="svg96"
   inkscape:export-filename="/home/mlipp/shirt.png"
   inkscape:export-xdpi="900"
   inkscape:export-ydpi="900"
   inkscape:version="0.92.4 5da689c313, 2019-01-14"
   sodipodi:docname="Meltdown_logo_with_text.svg"
   x="0px"
   y="0px"
   viewBox="0 0 512.00001 511.99998"
   xml:space="preserve"
   width="512"
   height="512"><metadata
   id="metadata25"><rdf:RDF><cc:Work
       rdf:about=""><dc:format>image/svg+xml</dc:format><dc:type
         rdf:resource="http://purl.org/dc/dcmitype/StillImage" /><dc:title></dc:title></cc:Work></rdf:RDF></metadata><defs
   id="defs23">
	
	

		
		
		
		
		
	</defs><sodipodi:namedview
   pagecolor="#ffffff"
   bordercolor="#666666"
   borderopacity="1"
   objecttolerance="10"
   gridtolerance="10"
   guidetolerance="10"
   inkscape:pageopacity="0"
   inkscape:pageshadow="2"
   inkscape:window-width="766"
   inkscape:window-height="480"
   id="namedview21"
   showgrid="false"
   inkscape:pagecheckerboard="true"
   inkscape:zoom="0.31597268"
   inkscape:cx="-347.65362"
   inkscape:cy="373.45001"
   inkscape:window-x="0"
   inkscape:window-y="26"
   inkscape:window-maximized="0"
   inkscape:current-layer="svg96" />
<style
   type="text/css"
   id="style2">
	.st0{fill:#FF9600;}
</style>
<g
   id="g51"
   transform="translate(-15.824153,3.1648306)"
   inkscape:export-xdpi="94.900002"
   inkscape:export-ydpi="94.900002"><path
     style="fill:#ffffff;stroke-width:0.87634206"
     d="M 442.94722,74.452278 C 389.49035,51.053944 336.20875,27.305074 283.10242,3.380935 c -2.45376,-1.2268789 -5.34568,-1.2268789 -7.71181,0 -53.5445,23.74887 -107.00137,47.497741 -160.45823,71.158977 -2.71666,0.701074 -4.46935,3.3301 -4.11881,6.04676 0.35054,36.455828 0,72.911658 0.35054,109.279858 0.17526,46.27086 14.1091,91.31484 39.87356,129.52336 0,0.78871 -0.0876,1.57741 -0.0876,2.19085 -0.70108,8.41289 4.90751,22.87253 11.91825,17.43921 0.78871,-0.61344 1.40215,-0.87634 1.92795,-1.05161 1.05161,1.31451 2.10322,2.54139 3.15483,3.76827 0.61344,3.94354 0.0876,9.90267 0.17527,13.23277 0.0876,6.13439 0.96398,21.99618 13.14513,15.86179 3.3301,-1.66505 5.69623,-4.38171 7.44891,-7.44891 0.87634,0.78871 1.66505,1.57742 2.54139,2.27849 0.0876,1.13925 0.35054,2.27849 0.70108,3.593 2.27848,8.58816 0.96397,70.98371 0.96397,70.98371 0,0 1.48978,13.75857 10.69138,13.75857 9.20159,0 9.90266,-13.75857 9.90266,-13.75857 v -41.97678 c 0,0 1.92795,-7.71181 11.30481,-5.34569 9.37686,2.36612 9.37686,11.83062 9.37686,11.83062 v 94.29441 c 0,0 1.13925,9.72739 9.90267,9.72739 7.97471,0 9.20159,-11.21718 9.20159,-11.21718 l 4.81988,-91.57774 c 4.29408,1.57741 8.67579,3.06719 13.14513,4.38171 2.27849,0.70107 4.73225,1.13924 7.09837,1.13924 l 0.35054,49.6886 c 0,0 1.05161,23.22306 12.61933,22.78489 11.39244,-0.43817 11.48008,-24.36231 11.48008,-24.36231 v -36.6311 c 0,0 2.19085,-11.39244 9.02632,-11.39244 6.83547,0 8.58815,9.37686 8.58815,14.45964 0,5.08278 0.87635,18.22792 1.22688,21.47038 0.35054,3.24247 4.20645,9.55213 10.51611,9.63976 6.22203,0.0876 10.07793,-9.37686 10.07793,-12.70696 0,-3.3301 0.70108,-43.8171 0.70108,-43.8171 0,0 -0.70108,-15.33599 8.93869,-16.29996 12.18115,-1.31452 9.37686,7.4489 11.12954,9.9903 1.75268,2.54139 4.38171,3.06719 7.44891,3.24246 3.06719,0.17527 9.02632,-3.68063 9.63976,-11.30481 0.35054,-4.81988 1.22688,-22.60963 1.75268,-34.87842 4.90752,-5.25805 9.63977,-10.86664 14.02148,-16.65049 33.301,-41.88916 51.35364,-93.85624 51.17838,-147.31311 v -47.23484 c -0.17527,-19.63006 -0.17527,-39.34776 0.0876,-58.977818 0.35054,-2.891929 -1.40215,-5.696224 -4.20644,-6.747834 z m -24.80048,28.393482 v 48.98752 39.08486 c 0.17526,28.91929 -6.22203,57.31277 -18.22792,83.2525 -14.72255,35.49185 -34.61551,64.41114 -40.487,64.58641 -2.89193,0.0876 -4.03118,2.62903 -5.60859,6.48493 -1.75269,4.20644 -3.68064,10.07793 -5.95913,11.30481 -3.50537,1.92796 -4.81988,1.48978 -8.76342,1.84032 -6.6602,0.61344 -5.25805,18.57845 -6.9231,23.39834 -0.52581,1.48978 -2.36613,5.69622 -5.95913,6.57256 -1.66505,0.43817 -3.94354,-0.2629 -5.95912,-1.92795 -3.76827,-2.97956 -2.01559,-11.30481 -7.27364,-14.98545 -9.11396,-6.48493 -14.54728,6.13439 -14.54728,6.13439 v 13.67094 c 0,0 -0.35054,10.2532 -5.78386,8.23762 -5.43332,-1.92796 -4.55698,-13.58331 -4.55698,-13.58331 v -10.95427 c -0.87634,0.2629 -1.75268,0.5258 -2.71666,0.87634 -4.20644,1.31451 -8.76342,1.31451 -12.96986,0 -4.90752,-1.48978 -9.7274,-3.15483 -14.37201,-5.08279 -0.43817,3.59301 -1.13925,7.97472 -2.27849,8.85106 -2.19086,1.57742 -5.69622,2.19086 -9.20159,-0.17527 -3.24247,-2.19085 -4.99515,-9.9903 -5.34569,-15.33598 0,-0.43818 0,-0.78871 -0.0876,-1.13925 -24.71285,-12.96986 -46.27087,-31.63595 -62.65846,-54.68375 -24.97575,-33.30099 -38.47142,-73.788 -38.73432,-115.32661 -0.35054,-30.2338 0,-60.37997 0,-90.61377 -0.26291,-2.27849 1.13924,-4.381715 3.3301,-4.995154 44.16764,-19.542428 88.42291,-39.260125 132.67819,-59.065456 2.01559,-1.051611 4.38171,-1.051611 6.3973,0 44.16764,19.805331 88.33528,39.435393 132.50292,58.890188 2.45376,0.876342 3.8559,3.242462 3.50537,5.696222 z"
     class="st0"
     inkscape:connector-curvature="0"
     id="path84" /><path
     style="fill:#ffffff;stroke-width:0.87634206"
     d="m 281.78791,64.637246 c -1.66505,-0.876342 -3.68064,-0.876342 -5.43332,0 -37.41981,16.6505 -74.66435,33.213365 -111.99652,49.776234 -1.75268,0.61344 -2.89193,2.27849 -2.80429,4.1188 v 76.50467 c 0.0876,8.32525 0.70107,16.73813 2.01558,24.97575 1.31452,8.14998 3.15483,16.12469 5.60859,24.01177 L 346.63722,93.556535 Z"
     class="st0"
     inkscape:connector-curvature="0"
     id="path88" /><path
     style="fill:#ffffff;stroke-width:0.87634206"
     d="m 393.60916,114.32584 -20.76931,-9.20159 -193.32106,163.7007 c 2.01558,3.85591 4.11881,7.71181 6.3973,11.39245 v 19.89296 c 0,0 -0.96398,7.27364 4.55697,8.50052 5.43332,1.22688 5.78386,-5.17042 5.78386,-5.17042 v -8.41288 c 2.97956,3.8559 6.1344,7.62418 9.4645,11.21718 l 154.4991,-130.75024 v 5.34569 c 0,0 -0.96397,7.27364 4.55698,8.50051 5.43332,1.22688 5.78386,-5.17041 5.78386,-5.17041 V 166.7311 l 8.41289,-7.09837 c 0.70107,1.22688 1.75268,2.27849 3.50536,2.62902 5.43332,1.22688 5.78386,-5.17041 5.78386,-5.17041 v -5.43333 l 8.23762,-7.01073 v -25.67682 c 0.35053,-2.01559 -0.87635,-4.03118 -2.89193,-4.64462 z"
     class="st0"
     inkscape:connector-curvature="0"
     id="path90" /><path
     style="fill:#ffffff;stroke-width:0.87634206"
     d="M 396.58872,178.56172 224.73804,324.12214 c 2.97956,2.36612 6.13439,4.55698 9.28923,6.74783 0.0876,0.2629 0.2629,0.61344 0.35053,0.96398 1.22688,3.3301 6.83547,10.16556 11.04191,7.36127 2.10322,-1.40215 5.60859,3.41773 5.60859,5.95913 0,2.54139 2.01559,5.95912 6.3973,5.95912 3.24246,0 5.17042,-2.36612 6.22203,-4.99515 3.24246,1.22688 6.48493,2.27849 9.72739,3.24247 3.59301,1.13924 7.36128,1.13924 10.95428,0 9.9903,-2.97956 19.63006,-7.01074 28.65639,-11.91825 v 15.16071 c 0,0 2.19085,5.78386 7.186,5.78386 4.38171,0 6.3973,-3.68064 7.01074,-7.36127 0.61344,-3.593 1.31451,-19.7177 4.20644,-22.08382 2.89193,-2.45376 4.29408,5.95912 13.40803,6.04676 7.18601,0.0876 8.23762,-16.1247 14.45965,-30.05854 2.36612,-5.25805 13.5833,-26.02736 13.5833,-26.02736 15.51126,-25.67682 23.74887,-55.29718 23.66124,-85.61862 0.0876,-4.81988 0.0876,-9.81503 0.0876,-14.72254 z"
     class="st0"
     inkscape:connector-curvature="0"
     id="path92" /></g>
</svg>