<?xml version="1.0" encoding="UTF-8" standalone="no"?>
<!-- Generator: Adobe Illustrator 22.0.1, SVG Export Plug-In . SVG Version: 6.00 Build 0)  -->

<svg
   xmlns:dc="http://purl.org/dc/elements/1.1/"
   xmlns:cc="http://creativecommons.org/ns#"
   xmlns:rdf="http://www.w3.org/1999/02/22-rdf-syntax-ns#"
   xmlns:svg="http://www.w3.org/2000/svg"
   xmlns="http://www.w3.org/2000/svg"
   xmlns:sodipodi="http://sodipodi.sourceforge.net/DTD/sodipodi-0.dtd"
   xmlns:inkscape="http://www.inkscape.org/namespaces/inkscape"
   version="1.1"
   id="svg2"
   inkscape:export-filename="/home/mschwarz/Documents/OutOfOrder/shirt/spectre.svg.png"
   inkscape:export-xdpi="807.59918"
   inkscape:export-ydpi="807.59918"
   inkscape:version="0.92.4 5da689c313, 2019-01-14"
   sodipodi:docname="Spectre_logo_with_text.svg"
   x="0px"
   y="0px"
   viewBox="0 0 359475.2 427929.6"
   xml:space="preserve"
   width="512"
   height="512"><metadata
   id="metadata26"><rdf:RDF><cc:Work
       rdf:about=""><dc:format>image/svg+xml</dc:format><dc:type
         rdf:resource="http://purl.org/dc/dcmitype/StillImage" /><dc:title></dc:title></cc:Work></rdf:RDF></metadata><defs
   id="defs24" /><sodipodi:namedview
   pagecolor="#ffffff"
   bordercolor="#666666"
   borderopacity="1"
   objecttolerance="10"
   gridtolerance="10"
   guidetolerance="10"
   inkscape:pageopacity="0"
   inkscape:pageshadow="2"
   inkscape:window-width="1366"
   inkscape:window-height="742"
   id="namedview22"
   showgrid="false"
   inkscape:pagecheckerboard="true"
   units="px"
   inkscape:zoom="0.90028971"
   inkscape:cx="340.36131"
   inkscape:cy="250.50456"
   inkscape:window-x="0"
   inkscape:window-y="26"
   inkscape:window-maximized="1"
   inkscape:current-layer="g60" />
<style
   type="text/css"
   id="style2">
	.st0{fill:#06B2FA;}
	.st1{fill:none;stroke:#06B2FA;stroke-width:14.4734;stroke-linecap:round;stroke-miterlimit:10;}
	.st2{fill:none;stroke:#06B2FA;stroke-width:14.4734;stroke-linecap:round;stroke-linejoin:round;stroke-miterlimit:10;}
</style>
<g
   id="g60"
   transform="translate(-65.664003,427006.72)">
	
	
	
	
	
	
	
	<g
   id="g889"
   transform="matrix(585.14273,0,0,585.14273,-63422.821,-424656.09)"><path
     style="fill:#ffffff"
     d="m 342.5,88.8 c 41.7,-6 85.1,3.8 121.1,26.8 31,19.6 56.5,48.7 73.4,82.5 15.3,30.4 23.6,64.6 24.4,99 0.1,1.9 0.4,3.8 0.4,5.6 v 220.6 c 0,2.2 -0.1,4.4 0.2,6.6 0.5,3.9 0,7.8 0.8,11.7 1.1,5.3 2.5,10.7 5.1,15.4 7.2,14.2 21,23.8 35.6,27 3,0.7 6.5,0.6 8.8,3.2 3.6,3.5 3.2,10.5 -0.9,13.4 -2,1.2 -3.2,3.5 -4.8,5.2 -12.7,15.1 -31.5,23.8 -50.4,24.6 -21.4,1.4 -43.3,-7.3 -58,-24 -2.4,4.1 -5,8.1 -8.3,11.7 -3.2,3.8 -7.1,6.7 -10.9,9.5 -3,1.5 -5.8,3.5 -9,4.7 -8.8,3.9 -18.6,4.7 -28,3.7 -13.5,-1.8 -26,-9 -35.1,-19.7 -10.2,16.4 -28.4,26.8 -47,26.4 -5.3,0.3 -10.5,-1.1 -15.5,-2.2 -12.1,-3.7 -22.9,-11.9 -30.2,-22.7 -7.8,10.9 -19.4,18.4 -31.9,21.4 -9.7,2.2 -20,1.9 -29.5,-1.4 -7.6,-2.5 -14.5,-6.8 -20.4,-12.4 -2,-1.7 -3.5,-4.1 -5.5,-5.9 -12.2,11.4 -28.2,18.2 -44.5,19.1 -18.4,1.3 -37.3,-4.6 -51.6,-17.1 -4.3,-3.6 -8,-7.8 -11.4,-12.4 -1.3,-1.8 -1.6,-4.1 -2.9,-6 -2.5,-3.8 -1.3,-9.4 2.3,-11.9 2.4,-1.9 5.6,-1.5 8.4,-1.9 10.6,-1.5 20.8,-6.3 28.9,-13.6 9.6,-8.7 16.2,-21.7 16.3,-35.2 0.5,-12.7 0.1,-25.4 0.2,-38.1 v -199 c 0.2,-2.8 -0.5,-5.7 -0.4,-8.5 1.1,-30.3 7.9,-60.4 20.2,-87.8 13.7,-30.6 34.2,-57.8 59.6,-78.3 26.5,-21.4 57.8,-35.5 90.5,-40 m 14.4,16.2 c -25.6,1.6 -50.8,9.6 -73.2,22.8 -21.4,12.6 -40.3,30.1 -55.2,50.7 -23.3,31.9 -36.9,71.5 -39.1,111.8 0.3,8.3 0.1,16.7 0.2,25 v 148.9 c -0.1,25.6 0.2,51.2 -0.1,76.7 -0.4,11.7 -3.8,23.2 -9.9,33 -9.3,15.5 -24.7,26.3 -41.3,30.9 5.3,5.1 11.4,9.2 18.1,11.9 8.7,3.7 18.3,4.7 27.6,3.9 12.8,-1.1 25.2,-7 34.4,-16.5 1.6,-1.4 1.4,-3.9 2.8,-5.5 2.5,-3.5 7.7,-4.4 11.1,-1.9 2.1,1.4 3.1,4 4.4,6.1 1.8,2.8 3.8,5.5 6,7.9 5.2,5.7 12.1,9.4 19.4,11.1 3.8,0.9 7.7,0.8 11.5,0.7 14.2,-0.9 27.4,-10.7 33,-24.6 2.2,-6.4 11.3,-8.1 15.4,-3 1.7,2 2.1,4.8 3.4,7.2 4.9,10.1 13.7,17.9 23.9,21.1 4.2,1 8.5,1.9 12.8,1.6 14,-0.3 27.5,-9.2 33.7,-22.5 1.6,-2.8 2,-6.3 4,-8.9 2.7,-3.6 8.3,-4.1 11.6,-1.2 1.7,1.3 2.3,3.6 3.6,5.2 1.4,1.8 2.5,3.8 3.9,5.6 7.6,9.7 19.2,16 31.2,15.5 6.3,0.1 12.8,-1.4 18.3,-4.8 5.8,-3.3 11,-8.1 14.7,-14 1.8,-2.8 2.7,-6.1 4.3,-9 1.1,-1.7 0.6,-4 1.6,-5.7 1.7,-3.9 6.2,-5.9 10,-4.4 3.1,1 4.8,4.1 6.8,6.7 3.4,5.7 8,10.6 13.2,14.6 17.1,13 40.9,14.7 59.8,5.1 4.4,-2.2 8.4,-5.3 12.3,-8.5 -10.3,-3.9 -19.6,-10.3 -27.3,-18.5 -6.7,-7.4 -12,-16.5 -14.7,-26.4 -1.9,-6 -2.4,-12.4 -3,-18.7 V 308.1 c 0,-1.9 -0.4,-3.8 -0.4,-5.7 -0.1,-18.8 -2.5,-37.6 -7.4,-55.7 C 528,207.6 506.2,171.9 476.5,146.2 462.7,134.5 447.3,124.5 430.8,117.9 407,107.7 381.8,103.4 356.9,105 Z"
     class="st0"
     inkscape:connector-curvature="0"
     id="path64" /><path
     style="fill:#ffffff"
     d="m 441.4,296.9 c -9.5,3.3 -20,3.8 -29.8,1.1 -11.6,-3.1 -22,-10.4 -28.7,-20.4 -6.3,-9.2 -9.4,-20.5 -8.7,-31.6 0.6,-11 5,-21.8 12.3,-30.2 0.5,-0.6 1.2,-0.9 1.9,-1.1 16.7,-4.6 33.4,-9.3 50.1,-14 1.3,-0.4 2.6,0.4 3.9,0.8 12,4.4 22.1,13.5 27.7,24.9 4.2,8.5 6,18.2 5,27.6 -1.1,11.1 -6.1,21.9 -13.9,30 -5.4,5.9 -12.3,10.3 -19.8,12.9 z"
     class="st0"
     inkscape:connector-curvature="0"
     id="path66" /><path
     style="fill:#ffffff"
     d="m 300.2,299.4 c -11.6,-1.2 -22.6,-6.5 -30.8,-14.9 -12.2,-12.3 -17.4,-31.1 -12.9,-47.9 4.1,-16.7 17.4,-30.9 33.9,-35.8 17.1,4.3 34.1,9.1 51.2,13.6 1.6,0.2 2.5,1.7 3.4,2.8 4.9,6.1 8.4,13.2 10,20.9 2.4,10.3 1.3,21.5 -3,31.2 -4.2,9.8 -11.6,18.1 -20.8,23.4 -9.2,5.5 -20.3,7.9 -31,6.7 z"
     class="st0"
     inkscape:connector-curvature="0"
     id="path68" /><path
     style="fill:none;stroke:#ffffff;stroke-width:14.47340012;stroke-linecap:round;stroke-miterlimit:10"
     d="m 282.8,345.2 c 0,0 78,36.2 163.2,0"
     class="st1"
     inkscape:connector-curvature="0"
     id="path70" /><path
     style="fill:none;stroke:#ffffff;stroke-width:14.47340012;stroke-linecap:round;stroke-linejoin:round;stroke-miterlimit:10"
     d="m 149.3,428.8 c 0,0 -30.6,-18.5 -57.3,10.4 -15.1,20.6 -19.1,43.6 -19.1,43.6 l 23.5,-13.9 3.9,26.3 18.3,-15 10.4,21.1 c 0,0 9.7,-34.1 19,-31.7 9.4,2.3 15.3,-28.6 1.3,-40.8 z"
     class="st2"
     inkscape:connector-curvature="0"
     id="path72" /><path
     style="fill:none;stroke:#ffffff;stroke-width:14.47340012;stroke-linecap:round;stroke-linejoin:round;stroke-miterlimit:10"
     d="m 647.6,389.2 c 0,0 -15.9,-34.1 -41.2,-30.8 -25.4,3.4 -9.4,19.3 -9.4,19.3 0,0 -24.8,6 -9.8,20.6 0,0 -17,5.3 -4.9,17.7 12.1,12.4 19.2,23.3 41,20.2 -0.1,0.1 35.9,-8.2 24.3,-47 z"
     class="st2"
     inkscape:connector-curvature="0"
     id="path74" /><path
     style="fill:#ffffff"
     d="m 742.1,226.3 c 8.8,-22.8 22.9,-53.1 23,-53.4 1.4,-3.1 0.1,-6.7 -3,-8.1 -3.1,-1.4 -6.7,-0.1 -8.1,3 -0.1,0.2 -6.9,14.8 -14,31.4 L 729.7,179 c -1.5,-3 -5.2,-4.2 -8.2,-2.7 -3,1.5 -4.2,5.2 -2.7,8.2 l 14.7,28.8 c 0.1,0.2 0.2,0.4 0.4,0.6 -1.1,2.7 -2.2,5.4 -3.2,8 -6.3,16.3 -7.9,26.7 -8.2,32.7 l -32.9,38 -4.4,-25.9 c -0.6,-3.3 -3.8,-5.6 -7.1,-5 -3.3,0.6 -5.6,3.7 -5,7.1 l 6.1,35.8 -49.8,57.6 c -1.1,1.3 -1.6,2.9 -1.5,4.6 0.2,1.7 1,3.2 2.3,4.2 l 6.7,5.3 c 1.3,1 2.9,1.5 4.5,1.3 1.6,-0.2 3.1,-1 4.1,-2.3 L 731.6,265 764.3,248.7 c 3,-1.5 4.3,-5.2 2.8,-8.2 -1.5,-3 -5.2,-4.3 -8.2,-2.8 l -22.7,11.3 -0.7,-0.5 c 0.9,-5.1 2.8,-12.4 6.6,-22.2 z"
     class="st0"
     inkscape:connector-curvature="0"
     id="path76" /><path
     style="fill:#ffffff"
     d="m 587.3,421.3 -10.8,14.9 c -1.1,1.3 -1.6,2.9 -1.5,4.6 0.2,1.7 1,3.2 2.3,4.2 l 6.7,5.3 c 1.3,1 2.9,1.5 4.5,1.3 1.6,-0.2 3.1,-1 4.1,-2.3 l 13.8,-17.6 h -11.6 z"
     class="st0"
     inkscape:connector-curvature="0"
     id="path78" /></g>
	
</g>
</svg>