<?xml version="1.0" encoding="UTF-8" standalone="no"?>
<svg
   xmlns:dc="http://purl.org/dc/elements/1.1/"
   xmlns:cc="http://creativecommons.org/ns#"
   xmlns:rdf="http://www.w3.org/1999/02/22-rdf-syntax-ns#"
   xmlns:svg="http://www.w3.org/2000/svg"
   xmlns="http://www.w3.org/2000/svg"
   xmlns:xlink="http://www.w3.org/1999/xlink"
   xmlns:sodipodi="http://sodipodi.sourceforge.net/DTD/sodipodi-0.dtd"
   xmlns:inkscape="http://www.inkscape.org/namespaces/inkscape"
   id="svg197"
   width="228"
   height="84"
   version="1"
   sodipodi:docname="background.svg"
   inkscape:version="1.0 (4035a4fb49, 2020-05-01)">
  <metadata
     id="metadata69">
    <rdf:RDF>
      <cc:Work
         rdf:about="">
        <dc:format>image/svg+xml</dc:format>
        <dc:type
           rdf:resource="http://purl.org/dc/dcmitype/StillImage" />
      </cc:Work>
    </rdf:RDF>
  </metadata>
  <sodipodi:namedview
     inkscape:document-rotation="0"
     pagecolor="#ffffff"
     bordercolor="#666666"
     borderopacity="1"
     objecttolerance="10"
     gridtolerance="10"
     guidetolerance="10"
     inkscape:pageopacity="0"
     inkscape:pageshadow="2"
     inkscape:window-width="839"
     inkscape:window-height="480"
     id="namedview67"
     showgrid="false"
     inkscape:zoom="5.2"
     inkscape:cx="61.933306"
     inkscape:cy="68.399776"
     inkscape:window-x="57"
     inkscape:window-y="105"
     inkscape:window-maximized="0"
     inkscape:current-layer="svg197" />
  <defs
     id="defs83">
    <radialGradient
       id="radialGradient4263"
       cx="984"
       cy="905.362"
       r="8.5"
       fx="984"
       fy="905.362"
       gradientTransform="matrix(-2.0000026,-7.496206e-6,7.4960219e-6,-1.9999534,2128.9959,1877.6886)"
       gradientUnits="userSpaceOnUse"
       xlink:href="#linearGradient4465" />
    <linearGradient
       id="linearGradient4465">
      <stop
         id="stop71"
         style="stop-color:#000000;stop-opacity:0.50980395"
         offset="0" />
      <stop
         id="stop73"
         style="stop-color:#000000;stop-opacity:0"
         offset="1" />
    </linearGradient>
    <radialGradient
       id="radialGradient4255"
       cx="982.909"
       cy="906.453"
       r="8.5"
       fx="982.909"
       fy="906.453"
       gradientTransform="matrix(2.0000165,2.3249527e-5,-2.3248996e-5,1.999971,-1754.8133,-1795.9038)"
       gradientUnits="userSpaceOnUse"
       xlink:href="#linearGradient4465" />
    <linearGradient
       id="linearGradient4259"
       x1="83.6"
       x2="83.6"
       y1="-969.362"
       y2="-952.362"
       gradientTransform="matrix(0.71428571,0,0,1,-317.71429,1250.3622)"
       gradientUnits="userSpaceOnUse"
       xlink:href="#linearGradient4465" />
    <linearGradient
       id="linearGradient4452"
       x1="-260"
       x2="-260"
       y1="281"
       y2="298"
       gradientUnits="userSpaceOnUse"
       xlink:href="#linearGradient4465" />
    <radialGradient
       id="radialGradient3382"
       cx="984"
       cy="905.362"
       r="8.5"
       fx="984"
       fy="905.362"
       gradientTransform="matrix(-1.5053729e-5,2.0000041,-1.9999805,-1.505355e-5,2021.7213,-1900.9915)"
       gradientUnits="userSpaceOnUse"
       xlink:href="#linearGradient4465" />
    <radialGradient
       id="radialGradient4275"
       cx="984"
       cy="905.362"
       r="8.5"
       fx="984"
       fy="905.362"
       gradientTransform="matrix(-4.6111949e-7,-2.0000067,1.9999847,-4.6111438e-7,-1649.7098,1985.006)"
       gradientUnits="userSpaceOnUse"
       xlink:href="#linearGradient4465" />
    <linearGradient
       id="linearGradient4315"
       x1="83.6"
       x2="83.6"
       y1="-969.362"
       y2="-952.362"
       gradientTransform="matrix(0.71428571,0,0,1,-317.71429,1250.3622)"
       gradientUnits="userSpaceOnUse"
       xlink:href="#linearGradient4465" />
    <linearGradient
       id="linearGradient4317"
       x1="83.6"
       x2="83.6"
       y1="-969.362"
       y2="-952.362"
       gradientTransform="matrix(0.71428571,0,0,1,-317.71429,1250.3622)"
       gradientUnits="userSpaceOnUse"
       xlink:href="#linearGradient4465" />
  </defs>
  <rect
     id="center"
     style="fill:#181818;fill-opacity:1"
     width="50"
     height="50"
     x="7"
     y="27" />
  <g
     id="topleft"
     transform="translate(-183,-231.99995)"
     style="fill:#181818;fill-opacity:1">
    <path
       sodipodi:nodetypes="cccssc"
       id="path86"
       style="fill:#181818;fill-opacity:1"
       d="m 190.00001,251.99982 v 7 h -7 v -0.0303 c 0,-2.77 4.22987,-6.96969 6.99987,-6.96969 z" />
  </g>
  <g
     id="left"
     transform="translate(-183,-231.99995)"
     style="fill:#181818;fill-opacity:1">
    <path
       id="path89"
       style="fill:#181818;fill-opacity:1"
       d="m 183.00002,258.99981 v 50 l 7,10e-6 v -50 z" />
  </g>
  <g
     id="right"
     transform="translate(-183,-231.99995)"
     style="fill:#181818;fill-opacity:1">
    <path
       id="path92"
       style="fill:#181818;fill-opacity:1"
       d="m 247,258.99982 v 50 l -7,10e-6 v -50 z" />
  </g>
  <g
     id="bottomleft"
     transform="translate(-183,-231.99995)"
     style="fill:#181818;fill-opacity:1">
    <path
       sodipodi:nodetypes="cccssc"
       id="path95"
       style="fill:#181818;fill-opacity:1"
       d="m 190.00001,315.99991 v -7 h -7 v 9.4e-4 c 0,2.77 4.20137,6.99906 6.97137,6.99906 z" />
  </g>
  <g
     id="bottom"
     transform="translate(-183,-231.99995)"
     style="fill:#181818;fill-opacity:1">
    <path
       id="path98"
       style="fill:#181818;fill-opacity:1"
       d="M 189.99998,315.99995 H 240 v -7 h -50.00001 z" />
  </g>
  <g
     id="bottomright"
     transform="translate(-183,-231.99995)"
     style="fill:#181818;fill-opacity:1">
    <path
       sodipodi:nodetypes="cccssc"
       id="path101"
       style="fill:#181818;fill-opacity:1"
       d="m 240,315.99991 v -7 h 7 v 0.0299 c 0,2.77 -4.20587,6.97011 -6.97587,6.97011 z" />
  </g>
  <g
     id="topright"
     transform="translate(-183,-231.99995)"
     style="fill:#181818;fill-opacity:1">
    <path
       sodipodi:nodetypes="cccssc"
       id="path104"
       style="fill:#181818;fill-opacity:1"
       d="m 240,251.99982 v 7 h 7 v -0.0123 c 0,-2.77 -4.22332,-6.98769 -6.99332,-6.98769 z" />
  </g>
  <g
     id="top"
     transform="translate(-183,-231.99995)"
     style="fill:#181818;fill-opacity:1">
    <path
       id="path107"
       style="fill:#181818;fill-opacity:1"
       d="M 189.99998,251.99982 H 240 v 7 h -50.00001 z" />
  </g>
  <rect
     id="hint-top-margin"
     style="fill:#ff00ff"
     width="4"
     height="10"
     x="29"
     y="27" />
  <rect
     id="hint-bottom-margin"
     style="fill:#ff00ff"
     width="4"
     height="10"
     x="29"
     y="67" />
  <rect
     id="hint-left-margin"
     style="fill:#ff00ff"
     width="10"
     height="4"
     x="7"
     y="49" />
  <rect
     id="hint-right-margin"
     style="fill:#ff00ff"
     width="10"
     height="4"
     x="47"
     y="49" />
  <rect
     id="hint-tile-center"
     style="fill:#ff00ff"
     width="5"
     height="5"
     x="0"
     y="2" />
  <path
     sodipodi:nodetypes="ccsscccc"
     id="shadow-topleft"
     style="fill:url(#radialGradient4275)"
     d="m 144.00001,16.998965 h 10 v -0.01215 c 0,-2.77 4.14773,-6.9878484 6.91773,-6.9878484 l 0.0823,0 v -9.99999996 h -17 z" />
  <g
     id="shadow-left"
     transform="matrix(-1,0,0,1,442.00001,-240.00103)">
    <rect
       id="rect168"
       style="fill:url(#linearGradient4315)"
       width="50"
       height="10"
       x="-307"
       y="288"
       transform="rotate(-90)" />
    <rect
       id="rect170"
       style="opacity:0;fill:#000000"
       width="7"
       height="1"
       x="278"
       y="257"
       transform="translate(3,2)" />
  </g>
  <path
     sodipodi:nodetypes="ccsscccc"
     id="shadow-bottomright"
     style="fill:url(#radialGradient3382)"
     d="m 228.00001,66.998965 h -10 l 0,0.04081 c 0,2.77 -4.18957,6.959192 -6.95957,6.959192 l -0.0404,0 v 10 h 17 z" />
  <g
     id="shadow-bottom"
     transform="rotate(90,341.00052,126.9995)">
    <rect
       id="rect174"
       style="fill:url(#linearGradient4317)"
       width="50"
       height="10"
       x="-307"
       y="288"
       transform="rotate(-90)" />
    <rect
       id="rect176"
       style="opacity:0;fill:#000000"
       width="7"
       height="1"
       x="278"
       y="257"
       transform="translate(3,2)" />
  </g>
  <g
     id="shadow-right"
     transform="translate(-69.999994,-240.00103)">
    <rect
       id="rect179"
       style="fill:url(#linearGradient4452)"
       width="50"
       height="10"
       x="-307"
       y="288"
       transform="rotate(-90)" />
    <rect
       id="rect181"
       style="opacity:0;fill:#000000"
       width="7"
       height="1"
       x="278"
       y="257"
       transform="translate(3,2)" />
  </g>
  <g
     id="shadow-top"
     transform="matrix(0,-1,-1,0,468.00001,297.99896)">
    <rect
       id="rect184"
       style="fill:url(#linearGradient4259)"
       width="50"
       height="10"
       x="-307"
       y="288"
       transform="rotate(-90)" />
    <rect
       id="rect186"
       style="opacity:0;fill:#000000"
       width="7"
       height="1"
       x="278"
       y="257"
       transform="translate(3,2)" />
  </g>
  <path
     sodipodi:nodetypes="ccsscccc"
     id="shadow-topright"
     style="fill:url(#radialGradient4255)"
     d="M 211.00001,-0.00103536 V 9.9989646 h 0.0136 c 2.77,0 6.98637,4.1932614 6.98637,6.9632614 v 0.03674 h 10 V -0.00103536 Z" />
  <path
     sodipodi:nodetypes="ccsscccc"
     id="shadow-bottomleft"
     style="fill:url(#radialGradient4263)"
     d="m 161.00001,83.998965 v -10 h -0.004 c -2.77,0 -6.9958,-4.177964 -6.9958,-6.947964 l 0,-0.05204 h -10 v 17 z" />
  <rect
     id="shadow-hint-right-margin"
     style="fill:#ff00ff"
     width="10"
     height="4"
     x="218"
     y="40" />
  <rect
     id="shadow-hint-bottom-margin"
     style="fill:#ff00ff"
     width="4"
     height="10"
     x="184"
     y="74" />
  <rect
     id="shadow-hint-left-margin"
     style="fill:#ff00ff"
     width="10"
     height="4"
     x="144"
     y="40" />
  <rect
     id="shadow-hint-top-margin"
     style="fill:#ff00ff"
     width="4"
     height="10"
     x="185"
     y="0" />
  <rect
     id="mask-center"
     style="fill:#000000"
     width="50"
     height="50"
     x="79"
     y="27" />
  <path
     sodipodi:nodetypes="cccssc"
     id="mask-topleft"
     style="fill:#000000"
     d="m 79.00001,19.999875 v 7 H 72 v -0.0344 c 0,-2.77 4.171887,-6.965601 6.941887,-6.965601 z" />
  <path
     id="mask-left"
     style="fill:#000000"
     d="m 72.00001,26.999865 v 50 l 7.00001,1e-5 v -50 z" />
  <path
     id="mask-right"
     style="fill:#000000"
     d="m 135.99999,26.999875 v 50 l -7,1e-5 v -50 z" />
  <path
     sodipodi:nodetypes="cccssc"
     id="mask-bottomleft"
     style="fill:#000000"
     d="m 79.00001,83.999965 v -7 H 72 v 0.03636 c 0,2.77 4.170039,6.963638 6.940039,6.963638 z" />
  <path
     id="mask-bottom"
     style="fill:#000000"
     d="m 78.99998,84.000005 h 50.00001 v -7 h -50 z" />
  <path
     sodipodi:nodetypes="cccssc"
     id="mask-bottomright"
     style="fill:#000000"
     d="m 128.99999,83.999965 v -7 h 7 l 0,0.05863 c 0,2.77 -4.16964,6.941367 -6.93964,6.941367 z" />
  <path
     sodipodi:nodetypes="cccssc"
     id="mask-topright"
     style="fill:#000000"
     d="m 128.99999,19.999875 v 7 h 7 l 0,-0.0722 c 0,-2.77 -4.22243,-6.927805 -6.99243,-6.927805 z" />
  <path
     id="mask-top"
     style="fill:#000000"
     d="m 78.99998,19.999875 h 50.00001 v 7 h -50 z" />
  <rect
     id="shadow-center"
     style="fill:none"
     width="50"
     height="50"
     x="161"
     y="17.06" />
</svg>
