<?xml version="1.0" encoding="UTF-8" standalone="no"?>
<svg
   xmlns:dc="http://purl.org/dc/elements/1.1/"
   xmlns:cc="http://creativecommons.org/ns#"
   xmlns:rdf="http://www.w3.org/1999/02/22-rdf-syntax-ns#"
   xmlns:svg="http://www.w3.org/2000/svg"
   xmlns="http://www.w3.org/2000/svg"
   xmlns:xlink="http://www.w3.org/1999/xlink"
   xmlns:sodipodi="http://sodipodi.sourceforge.net/DTD/sodipodi-0.dtd"
   xmlns:inkscape="http://www.inkscape.org/namespaces/inkscape"
   inkscape:version="1.0 (4035a4fb49, 2020-05-01)"
   sodipodi:docname="background.svg"
   version="1"
   height="94"
   width="84"
   id="svg70">
  <metadata
     id="metadata53">
    <rdf:RDF>
      <cc:Work
         rdf:about="">
        <dc:format>image/svg+xml</dc:format>
        <dc:type
           rdf:resource="http://purl.org/dc/dcmitype/StillImage" />
      </cc:Work>
    </rdf:RDF>
  </metadata>
  <sodipodi:namedview
     inkscape:current-layer="svg70"
     inkscape:window-maximized="1"
     inkscape:window-y="25"
     inkscape:window-x="0"
     inkscape:cy="40.528399"
     inkscape:cx="42"
     inkscape:zoom="6.1808511"
     showgrid="false"
     id="namedview51"
     inkscape:window-height="743"
     inkscape:window-width="1360"
     inkscape:pageshadow="2"
     inkscape:pageopacity="0"
     guidetolerance="10"
     gridtolerance="10"
     objecttolerance="10"
     borderopacity="1"
     bordercolor="#666666"
     pagecolor="#ffffff" />
  <defs
     id="defs15">
    <linearGradient
       id="linearGradient4465">
      <stop
         offset="0"
         style="stop-color:#000000;stop-opacity:0.50980395"
         id="stop2" />
      <stop
         offset="1"
         style="stop-color:#000000;stop-opacity:0"
         id="stop4" />
    </linearGradient>
    <radialGradient
       xlink:href="#linearGradient4465"
       gradientUnits="userSpaceOnUse"
       gradientTransform="matrix(1.7317915e-5,1.9999983,-1.9999805,1.731776e-5,1877.6894,-1891.015)"
       fy="905.362"
       fx="984"
       r="8.5"
       cy="905.362"
       cx="984"
       id="radialGradient3382" />
    <radialGradient
       xlink:href="#linearGradient4465"
       gradientUnits="userSpaceOnUse"
       gradientTransform="matrix(2.0000264,2.3796519e-5,-2.3796124e-5,1.9999933,-1777.8226,-1762.9844)"
       fy="906.453"
       fx="982.909"
       r="8.5"
       cy="906.453"
       cx="982.909"
       id="radialGradient4255" />
    <linearGradient
       xlink:href="#linearGradient4465"
       gradientUnits="userSpaceOnUse"
       gradientTransform="matrix(0.71428571,0,0,1,6.28571,1046.3613)"
       y2="-952.362"
       y1="-969.362"
       x2="83.6"
       x1="83.6"
       id="linearGradient4259" />
    <radialGradient
       xlink:href="#linearGradient4465"
       gradientUnits="userSpaceOnUse"
       gradientTransform="matrix(-2.000005,2.727468e-6,-2.7274042e-6,-1.999959,1985.0074,1887.6835)"
       fy="905.362"
       fx="984"
       r="8.5"
       cy="905.362"
       cx="984"
       id="radialGradient4263" />
    <linearGradient
       xlink:href="#linearGradient4465"
       gradientUnits="userSpaceOnUse"
       gradientTransform="matrix(0.71428571,0,0,1,-110.65338,831.3622)"
       y2="-952.362"
       y1="-969.362"
       x2="83.6"
       x1="83.6"
       id="linearGradient4271" />
    <radialGradient
       xlink:href="#linearGradient4465"
       gradientUnits="userSpaceOnUse"
       gradientTransform="matrix(8.0916064e-7,-2.000009,1.9999882,8.0915096e-7,-1672.7142,2017.9472)"
       fy="905.362"
       fx="984"
       r="8.5"
       cy="905.362"
       cx="984"
       id="radialGradient4275" />
    <linearGradient
       xlink:href="#linearGradient4465"
       gradientUnits="userSpaceOnUse"
       gradientTransform="matrix(0.71428571,0,0,1,127.28571,919.42311)"
       y2="-952.362"
       y1="-969.362"
       x2="83.6"
       x1="83.6"
       id="linearGradient4283" />
    <linearGradient
       xlink:href="#linearGradient4465"
       gradientUnits="userSpaceOnUse"
       gradientTransform="translate(230.00091,-214)"
       y2="298"
       y1="281"
       x2="-260"
       x1="-260"
       id="linearGradient4452" />
  </defs>
  <rect
     y="27"
     x="17"
     height="50"
     width="50"
     style="fill:#181818;fill-opacity:1"
     id="center" />
  <g
     transform="translate(-121,-22.940002)"
     id="topleft">
    <g
       id="g920">
      <path
         id="path18"
         style="fill:#181818;fill-opacity:1"
         d="m 138,42.93887 v 7 h -7 v -2 c 0,-2.77 2.23,-5 5,-5 z" />
      <path
         id="shadow-topleft"
         style="fill:url(#radialGradient4275)"
         d="m 121,49.93909 h 10 v -2 c 0,-2.77 2.23,-5 5,-5 h 2 v -10 h -17 z" />
    </g>
  </g>
  <g
     transform="translate(-121,-22.940002)"
     id="left" />
  <rect
     transform="scale(-1,1)"
     y="29"
     x="-17"
     height="1"
     width="7"
     style="opacity:0;fill:#000000"
     id="rect27" />
  <g
     id="g896">
    <path
       d="m 66.99999,83.998958 v -7 h 7 v 2 c 0,2.77 -2.23,5 -5,5 z"
       style="fill:#181818;fill-opacity:1"
       id="path29" />
    <path
       d="M 84,76.999088 H 74 v 2 c 0,2.77 -2.23,5 -5,5 h -2 v 10 h 17 z"
       style="fill:url(#radialGradient3382)"
       id="shadow-bottomright" />
  </g>
  <rect
     transform="rotate(90)"
     y="-65"
     x="77"
     height="1"
     width="7"
     style="opacity:0;fill:#000000"
     id="rect38" />
  <rect
     y="29"
     x="67"
     height="1"
     width="7"
     style="opacity:0;fill:#000000"
     id="rect45" />
  <g
     transform="translate(-121,-22.940002)"
     id="top" />
  <rect
     transform="matrix(0,-1,-1,0,0,0)"
     y="-65"
     x="-27"
     height="1"
     width="7"
     style="opacity:0;fill:#000000"
     id="rect52" />
  <g
     transform="translate(-121,-22.940002)"
     id="topright">
    <g
       id="g931">
      <path
         id="path54"
         style="fill:#181818;fill-opacity:1"
         d="m 187.99999,42.93887 v 7 h 7 v -2 c 0,-2.77 -2.23,-5 -5,-5 z" />
      <path
         id="shadow-topright"
         style="fill:url(#radialGradient4255)"
         d="m 188,32.93909 v 10 h 2 c 2.77,0 5,2.23 5,5 v 2 h 10 v -17 z" />
    </g>
  </g>
  <g
     transform="matrix(0.31570315,0,0,0.31570315,-251.27186,-111.66309)"
     style="opacity:0"
     id="shadow-center">
    <path
       d="m -6.0000004,-7.998957 v 62 H 56 v -62 z"
       style="opacity:0"
       id="path58" />
  </g>
  <g
     id="g909">
    <path
       d="m 17,83.998958 v -7 h -7 v 2 c 0,2.77 2.23,5 5,5 z"
       style="fill:#181818;fill-opacity:1"
       id="path61" />
    <path
       d="m 17,93.999088 v -10 h -2 c -2.77,0 -5,-2.23 -5,-5 v -2 H 0 v 17 z"
       style="fill:url(#radialGradient4263)"
       id="shadow-bottomleft" />
  </g>
  <rect
     y="0"
     x="0"
     height="5"
     width="5"
     style="fill:#ff00ff"
     id="hint-tile-center" />
  <g
     id="g927">
    <path
       transform="translate(-121,-22.940002)"
       id="path47"
       style="fill:#181818;fill-opacity:1"
       d="m 137.99997,42.93887 h 50.00002 v 7 h -50.00001 z" />
    <rect
       id="rect49"
       style="fill:url(#linearGradient4283)"
       width="50"
       height="10"
       x="138"
       y="-42.94"
       transform="matrix(1,0,0,-1,-121,-22.940002)" />
    <rect
       id="hint-top-margin"
       style="fill:#ff00ff"
       width="4"
       height="17"
       x="39"
       y="10" />
  </g>
  <g
     id="g903">
    <path
       d="m 16.99997,83.998998 h 50.00002 v -7 H 16.99998 Z"
       style="fill:#181818;fill-opacity:1"
       id="path33" />
    <rect
       y="84"
       x="17"
       height="10"
       width="50"
       style="fill:url(#linearGradient4259)"
       id="rect35" />
    <rect
       id="hint-bottom-margin"
       style="fill:#ff00ff"
       width="4"
       height="17"
       x="39"
       y="77" />
  </g>
  <g
     id="g890">
    <path
       d="m 73.99999,26.998868 v 50 l -7,1e-5 v -50 z"
       style="fill:#181818;fill-opacity:1"
       id="path40" />
    <rect
       transform="rotate(-90)"
       y="74"
       x="-77"
       height="10"
       width="50"
       style="fill:url(#linearGradient4452)"
       id="rect42" />
    <rect
       id="hint-right-margin"
       style="fill:#ff00ff"
       width="4"
       height="17"
       x="49"
       y="-84"
       transform="rotate(90)" />
  </g>
  <g
     id="g916">
    <path
       transform="translate(-121,-22.940002)"
       id="path22"
       style="fill:#181818;fill-opacity:1"
       d="m 131.00001,49.93886 v 50 l 7,10e-6 v -50 z" />
    <rect
       id="rect24"
       style="fill:url(#linearGradient4271)"
       width="50"
       height="10"
       x="-99.94"
       y="-131"
       transform="matrix(0,-1,-1,0,-121,-22.940002)" />
    <rect
       id="hint-left-margin"
       style="fill:#ff00ff"
       width="4"
       height="17"
       x="49"
       y="-17"
       transform="rotate(90)" />
  </g>
</svg>
